<?xml version="1.0" encoding="UTF-8" standalone="no"?>
<!DOCTYPE svg PUBLIC "-//W3C//DTD SVG 1.1//EN" "http://www.w3.org/Graphics/SVG/1.1/DTD/svg11.dtd">
<!-- Создано Microsoft Visio, экспорт SVG LogoMephist.svg Logotype -->
<svg xmlns="http://www.w3.org/2000/svg" xmlns:xlink="http://www.w3.org/1999/xlink" xmlns:ev="http://www.w3.org/2001/xml-events"
		xmlns:v="http://schemas.microsoft.com/visio/2003/SVGExtensions/" width="41.6667in" height="34.6458in"
		viewBox="0 0 3000 2494.5" xml:space="preserve" color-interpolation-filters="sRGB" class="st4">
	<v:documentProperties v:langID="1049" v:viewMarkup="false"/>

	<style type="text/css">
	<![CDATA[
		.st1 {fill:#333333;stroke:none;stroke-linecap:butt;stroke-width:11.8884}
		.st2 {fill:none;stroke:none;stroke-linecap:butt;stroke-width:0.75}
		.st3 {fill:#333333;font-family:Galaktika;font-size:28.0933em;letter-spacing:0.0106787em}
		.st4 {fill:none;fill-rule:evenodd;font-size:12px;overflow:visible;stroke-linecap:square;stroke-miterlimit:3}
	]]>
	</style>

	<g v:mID="0" v:index="1" v:groupContext="foregroundPage">
		<title>Logotype</title>
		<v:pageProperties v:drawingScale="1" v:pageScale="1" v:drawingUnits="19" v:shadowOffsetX="9" v:shadowOffsetY="-9"/>
		<g id="group1-1" transform="translate(200.279,-866.977)" v:mID="1" v:groupContext="group">
			<title>Лист.1</title>
			<g id="group2-2" transform="translate(136.096,-141.023)" v:mID="2" v:groupContext="group">
				<title>Лист.2</title>
				<g id="shape3-3" v:mID="3" v:groupContext="shape" transform="translate(279,-303.75)">
					<title>rnd1</title>
					<path d="M56.25 2494.5 C87.75 2494.5 112.5 2469.75 112.5 2438.25 C112.5 2406.75 87.75 2382 56.25 2382 C24.75
								 2382 0 2406.75 0 2438.25 C0 2469.75 24.75 2494.5 56.25 2494.5 ZM56.25 2404.5 C75.37 2404.5 90 2419.13
								 90 2438.25 C90 2457.38 75.37 2472 56.25 2472 C37.12 2472 22.5 2457.38 22.5 2438.25 C22.5 2419.13
								 37.12 2404.5 56.25 2404.5 Z" class="st1"/>
				</g>
				<g id="shape4-5" v:mID="4" v:groupContext="shape">
					<title>rnd2</title>
					<path d="M534.37 2134.5 C556.87 2116.5 576 2098.5 592.87 2080.5 C644.62 2026.5 663.75 1982.63 646.87 1954.5 C636.75
								 1937.63 617.62 1928.63 587.25 1928.63 L586.12 1951.13 C600.75 1951.13 619.87 1954.5 626.62 1965.75
								 C636.75 1983.75 617.62 2020.88 576 2065.88 C559.12 2083.88 538.87 2101.88 515.25 2121 C492.75 2104.13
								 470.25 2087.25 445.5 2071.5 C444.37 2042.25 441 2013 437.62 1986 C450 1981.5 462.37 1977 473.62
								 1973.63 C480.37 1989.37 496.12 2000.63 515.25 2000.63 C540 2000.63 560.25 1980.38 560.25 1955.62
								 C560.25 1930.88 540 1910.63 515.25 1910.63 C491.62 1910.63 473.62 1928.63 470.25 1951.13 C457.87
								 1954.5 446.62 1959 434.25 1963.5 C417.37 1856.63 383.62 1774.5 335.25 1774.5 C286.87 1774.5 253.12
								 1856.63 236.25 1962.38 C135 1924.13 47.25 1912.88 23.62 1954.5 C14.62 1970.25 15.75 1990.5 28.12
								 2014.13 L48.37 2004 C42.75 1992.75 37.12 1977 42.75 1965.75 C57.37 1939.88 131.62 1945.5 232.87
								 1984.88 C229.5 2011.88 226.12 2041.13 225 2070.38 C200.25 2086.13 176.62 2103 155.25 2119.88 C144
								 2110.88 133.87 2101.88 124.87 2094 C130.5 2086.13 133.87 2077.13 133.87 2067 C133.87 2042.25 113.62
								 2022 88.87 2022 C64.12 2022 43.87 2042.25 43.87 2067 C43.87 2091.75 64.12 2112 88.87 2112 C95.62
								 2112 101.25 2110.88 106.87 2108.63 C117 2117.63 127.12 2126.63 137.25 2135.63 C54 2203.13 0 2274
								 24.75 2315.63 C34.87 2333.63 58.5 2342.63 88.87 2342.63 C128.25 2342.63 180 2329.13 236.25 2307.75
								 C253.12 2412.38 286.87 2494.5 335.25 2494.5 C354.37 2494.5 371.25 2482.13 387 2458.5 L367.87 2446.13
								 C360 2457.38 348.75 2472 335.25 2472 C306 2472 273.37 2405.63 257.62 2297.63 C283.5 2287.5 309.37
								 2275.13 335.25 2261.63 C362.25 2275.13 388.12 2287.5 412.87 2297.63 C410.62 2311.13 408.37 2324.63
								 406.12 2337 C405 2337 403.87 2337 402.75 2337 C378 2337 357.75 2357.25 357.75 2382 C357.75 2406.75
								 378 2427 402.75 2427 C427.5 2427 447.75 2406.75 447.75 2382 C447.75 2366.25 439.87 2352.75 427.5
								 2344.88 C429.75 2332.5 432 2320.13 434.25 2306.63 C461.25 2316.75 486 2324.63 509.62 2330.25 C537.75
								 2337 561.37 2340.38 581.62 2340.38 C614.25 2340.38 635.62 2331.38 645.75 2313.38 C671.62 2272.88
								 617.62 2202 534.37 2134.5 ZM515.25 1932 C527.62 1932 537.75 1942.13 537.75 1954.5 C537.75 1966.88
								 527.62 1977 515.25 1977 C502.87 1977 492.75 1966.88 492.75 1954.5 C492.75 1942.13 502.87 1932 515.25
								 1932 ZM65.25 2067 C65.25 2054.63 75.37 2044.5 87.75 2044.5 C100.12 2044.5 110.25 2054.63 110.25
								 2067 C110.25 2079.38 100.12 2089.5 87.75 2089.5 C75.37 2089.5 65.25 2079.38 65.25 2067 ZM402.75
								 2404.5 C390.37 2404.5 380.25 2394.37 380.25 2382 C380.25 2369.63 390.37 2359.5 402.75 2359.5 C415.12
								 2359.5 425.25 2369.63 425.25 2382 C425.25 2394.37 415.12 2404.5 402.75 2404.5 ZM498.37 2134.5 C482.62
								 2146.88 465.75 2159.25 447.75 2170.5 C447.75 2158.12 448.87 2146.88 448.87 2134.5 C448.87 2122.13
								 448.87 2110.88 447.75 2098.5 C465.75 2110.88 482.62 2122.13 498.37 2134.5 ZM245.25 2134.5 C245.25
								 2116.5 245.25 2099.63 246.37 2082.75 C259.87 2073.75 274.5 2064.75 290.25 2055.75 C304.87 2046.75
								 320.62 2038.88 335.25 2031 C349.87 2038.88 364.5 2046.75 380.25 2055.75 C396 2064.75 410.62 2073.75
								 424.12 2082.75 C425.25 2099.63 425.25 2116.5 425.25 2134.5 C425.25 2151.38 425.25 2169.38 424.12
								 2186.25 C409.5 2195.25 394.87 2204.25 380.25 2213.25 C364.5 2222.25 349.87 2230.13 335.25 2238 C320.62
								 2230.13 304.87 2222.25 290.25 2213.25 C275.62 2204.25 261 2195.25 246.37 2186.25 C245.25 2169.38
								 245.25 2152.5 245.25 2134.5 ZM423 2055.75 C412.87 2049 402.75 2043.38 391.5 2036.63 C381.37 2031
								 370.12 2024.25 360 2018.63 C379.12 2009.63 398.25 2000.63 416.25 1992.75 C419.62 2013 420.75 2034.38
								 423 2055.75 ZM335.25 1797 C364.5 1797 397.12 1863.38 412.87 1970.25 C387 1980.38 361.12 1992.75
								 335.25 2006.25 C309.37 1992.75 282.37 1981.5 257.62 1970.25 C273.37 1863.38 306 1797 335.25 1797
								 ZM254.25 1993.88 C272.25 2001.75 291.37 2009.63 311.62 2019.75 C301.5 2025.38 290.25 2031 280.12
								 2037.75 C270 2043.38 258.75 2050.13 248.62 2056.87 C249.75 2034.38 250.87 2013 254.25 1993.88 ZM223.87
								 2098.5 C223.87 2110.88 222.75 2123.25 222.75 2134.5 C222.75 2146.88 222.75 2158.12 223.87 2170.5
								 C205.87 2158.12 189 2146.88 173.25 2134.5 C187.87 2122.13 204.75 2110.88 223.87 2098.5 ZM42.75 2303.25
								 C28.12 2277.38 69.75 2216.63 154.12 2149.13 C175.5 2166 199.12 2182.88 223.87 2198.63 C225 2227.88
								 228.37 2257.13 231.75 2284.13 C131.62 2323.5 57.37 2329.13 42.75 2303.25 ZM254.25 2275.13 C252 2256
								 249.75 2234.63 248.62 2213.25 C258.75 2220 268.87 2225.62 280.12 2232.38 C290.25 2238 301.5 2244.75
								 311.62 2250.38 C291.37 2259.37 272.25 2267.25 254.25 2275.13 ZM360 2249.25 C370.12 2243.63 381.37
								 2238 391.5 2231.25 C401.62 2225.62 412.87 2218.88 423 2212.13 C421.87 2233.5 419.62 2253.75 417.37
								 2274 C398.25 2267.25 379.12 2259.37 360 2249.25 ZM627.75 2303.25 C617.62 2321.25 576 2323.5 516.37
								 2308.88 C492.75 2303.25 465.75 2294.25 438.75 2284.13 C442.12 2257.13 445.5 2227.88 446.62 2198.63
								 C471.37 2182.88 495 2166 516.37 2149.13 C600.75 2216.63 642.37 2277.38 627.75 2303.25 Z"
							class="st1"/>
				</g>
				<g id="shape5-7" v:mID="5" v:groupContext="shape" transform="translate(9,-348.75)">
					<title>rnd3</title>
					<rect x="0" y="2472" width="22.5" height="22.5" class="st1"/>
				</g>
				<g id="shape6-9" v:mID="6" v:groupContext="shape" transform="translate(639,-348.75)">
					<title>rnd4</title>
					<rect x="0" y="2472" width="22.5" height="22.5" class="st1"/>
				</g>
				<g id="shape7-11" v:mID="7" v:groupContext="shape" transform="translate(155.25,-630)">
					<title>rnd5</title>
					<rect x="0" y="2472" width="22.5" height="22.5" class="st1"/>
				</g>
				<g id="shape8-13" v:mID="8" v:groupContext="shape" transform="translate(492.75,-630)">
					<title>rnd6</title>
					<rect x="0" y="2472" width="22.5" height="22.5" class="st1"/>
				</g>
				<g id="shape9-15" v:mID="9" v:groupContext="shape" transform="translate(155.25,-67.5)">
					<title>rnd7</title>
					<rect x="0" y="2472" width="22.5" height="22.5" class="st1"/>
				</g>
				<g id="shape10-17" v:mID="10" v:groupContext="shape" transform="translate(492.75,-67.5)">
					<title>rnd8</title>
					<rect x="0" y="2472" width="22.5" height="22.5" class="st1"/>
				</g>
			</g>
			<g id="shape11-19" v:mID="11" v:groupContext="shape" transform="translate(958.943,-226.51) rotate(0.151777)">
				<title>Лист.11</title>
				<desc>Mephist 2.0</desc>
				<v:textBlock v:margins="rect(0,0,0,0)" v:verticalAlign="0"/>
				<v:textRect cx="683.06" cy="2254.63" width="1366.12" height="479.735"/>
				<rect x="0" y="2014.77" width="1366.12" height="479.735" class="st2"/>
				<text x="-0" y="2318.17" class="st3" v:langID="1033"><v:paragraph/><v:tabList/>Mephist 2.0</text>			</g>
		</g>
	</g>
</svg>
